<svg data-v-2cb57da0="" version="1.0" xmlns="http://www.w3.org/2000/svg"
	xmlns:xlink="http://www.w3.org/1999/xlink" width="100px" height="100px"
	viewBox="0 0 340.000000 250.000000" preserveAspectRatio="xMidYMid meet"
	color-interpolation-filters="sRGB" style="margin: auto;">
	<rect data-v-2cb57da0="" x="0" y="0" width="100%" height="100%" fill="url(#watermark)"
		fill-opacity="1" class="watermarklayer"></rect>
	<g data-v-2cb57da0="" fill="#AA8B56" class="icon-text-wrapper icon-svg-group iconsvg"
		transform="translate(78.05795288085938,65.5053939819336)">
		<g class="iconsvg-imagesvg" transform="translate(61.942047119140625,0)">
			<g>
				<rect fill="#AA8B56" fill-opacity="0" stroke-width="2" x="0" y="0" width="60"
					height="60.019206145966706" class="image-rect"></rect>
				<svg x="0" y="0" width="60" height="60.019206145966706"
					filtersec="colorsb3494697733" class="image-svg-svg primary"
					style="overflow: visible;">
					<svg version="1.1" id="图层_1" xmlns="http://www.w3.org/2000/svg"
						xmlns:xlink="http://www.w3.org/1999/xlink" x="0px" y="0px"
						viewBox="0.4099999964237213 1.25 93.58999633789062 93.62000274658203"
						enable-background="new 0 0 95 95" xml:space="preserve"><g><path fill="#AA8B56" d="M30.86,1.25h21.39L41.28,35.61h-21.4L30.86,1.25L30.86,1.25z M87.47,15.05L94,35.43l-36.07,0.04L51.4,15.09
		L87.47,15.05L87.47,15.05z M91.79,72.88L74.47,85.45L63.19,51.18L80.5,38.62L91.79,72.88L91.79,72.88z M37.54,94.87L20.38,82.1
		l29.32-21.01l17.17,12.77L37.54,94.87L37.54,94.87z M0.41,50.62l6.67-20.33L36.3,51.43l-6.66,20.33L0.41,50.62L0.41,50.62z"></path></g></svg>
				</svg>
			</g>
		</g>
		<g transform="translate(0,67.01921081542969)">
			<g data-gra="path-name" class="tp-name iconsvg-namesvg">
				<g transform="scale(1)">
					<g>
						<path
							d="M2.49 0Q1.98 0 1.72-0.34 1.46-0.68 1.56-1.2L1.56-1.2 8.73-35.14Q8.84-35.71 9.25-36.05 9.67-36.38 10.19-36.38L10.19-36.38 31.29-36.38Q31.86-36.38 32.12-36.05 32.38-35.71 32.28-35.14L32.28-35.14 31.86-33.21Q31.76-32.69 31.37-32.36 30.98-32.02 30.41-32.02L30.41-32.02 12.99-32.02 10.34-19.7 26.72-19.7Q27.24-19.7 27.5-19.39 27.76-19.08 27.65-18.5L27.65-18.5 27.24-16.53Q27.13-16.01 26.74-15.67 26.35-15.33 25.78-15.33L25.78-15.33 9.41-15.33 6.39-1.2Q6.29-0.68 5.87-0.34 5.46 0 4.94 0L4.94 0 2.49 0ZM40.91 0.52Q36.44 0.52 34.25-1.61 32.07-3.74 32.07-7.59L32.07-7.59Q32.07-9.1 32.49-11.18L32.49-11.18 35.6-25.83Q35.71-26.35 36.1-26.69 36.49-27.03 37.06-27.03L37.06-27.03 39.45-27.03Q39.97-27.03 40.21-26.69 40.44-26.35 40.33-25.83L40.33-25.83 37.32-11.44Q36.85-9.41 36.85-7.9L36.85-7.9Q36.85-5.72 38.05-4.63 39.24-3.53 42-3.53L42-3.53Q45.53-3.53 48.08-5.67 50.63-7.8 51.41-11.44L51.41-11.44 54.47-25.83Q54.58-26.35 54.99-26.69 55.41-27.03 55.93-27.03L55.93-27.03 58.32-27.03Q58.84-27.03 59.1-26.69 59.36-26.35 59.25-25.83L59.25-25.83 54.01-1.2Q53.9-0.68 53.51-0.34 53.12 0 52.6 0L52.6 0 50.37 0Q49.85 0 49.56-0.34 49.28-0.68 49.38-1.2L49.38-1.2 49.85-3.53Q47.87-1.4 46-0.44 44.13 0.52 40.91 0.52L40.91 0.52ZM71.73 0.52Q67.1 0.52 64.84-2.13 62.58-4.78 62.58-9.04L62.58-9.04Q62.58-10.29 62.84-11.95L62.84-11.95Q63-13.25 63.52-15.07L63.52-15.07Q64.87-20.53 68.17-24.04 71.47-27.55 77.03-27.55L77.03-27.55Q82.7-27.55 84.88-23.7L84.88-23.7 87.43-35.71Q87.53-36.23 87.92-36.57 88.31-36.9 88.83-36.9L88.83-36.9 91.17-36.9Q91.69-36.9 91.98-36.57 92.26-36.23 92.16-35.71L92.16-35.71 84.78-1.2Q84.67-0.68 84.28-0.34 83.89 0 83.37 0L83.37 0 81.19 0Q80.67 0 80.38-0.34 80.1-0.68 80.2-1.2L80.2-1.2 80.67-3.43Q78.8-1.46 76.8-0.47 74.8 0.52 71.73 0.52L71.73 0.52ZM72.72-3.53Q75.21-3.53 77.21-4.7 79.21-5.87 80.51-7.74 81.81-9.62 82.28-11.7L82.28-11.7Q82.7-13.2 83.16-15.7L83.16-15.7Q83.32-16.63 83.32-17.52L83.32-17.52Q83.32-20.12 81.92-21.8 80.51-23.49 77.5-23.49L77.5-23.49Q73.96-23.49 71.68-21.1 69.39-18.71 68.3-15.02L68.3-15.02Q67.94-13.88 67.68-12.01L67.68-12.01Q67.47-10.76 67.47-9.36L67.47-9.36Q67.47-3.53 72.72-3.53L72.72-3.53Z"
							transform="translate(-1.5322222709655762, 37.41999816894531)"></path>
					</g>
					<g data-gra="path-name-1" fill="#AA8B56"
						transform="translate(93.65409851074219,0)">
						<g transform="scale(1)">
							<path
								d="M12.11 4.52Q8.94 4.52 6.24 3.46 3.53 2.39 1.87 0.23 0.21-1.92 0.21-4.99L0.21-4.99Q0.21-8.84 2.6-10.53 4.99-12.21 8.21-12.21L8.21-12.21Q6.55-10.5 5.69-8.63 4.83-6.76 4.83-4.99L4.83-4.99Q4.83-2.18 6.99-0.21 9.15 1.77 12.99 1.77L12.99 1.77Q15.44 1.77 17.65 0.96 19.86 0.16 21.23-1.46 22.61-3.07 22.61-5.25L22.61-5.25Q22.61-7.17 21.52-8.68 20.43-10.19 18.84-11.28 17.26-12.37 14.55-13.83L14.55-13.83Q11.7-15.39 9.93-16.58 8.16-17.78 6.97-19.52 5.77-21.26 5.77-23.55L5.77-23.55Q5.77-26.51 7.69-29.78 9.62-33.06 13.1-35.24 16.58-37.42 20.9-37.42L20.9-37.42Q27.39-37.42 27.39-31.97L27.39-31.97Q27.39-29.32 26.12-26.07 24.85-22.82 23.23-20.32L23.23-20.32Q20.95-20.79 20.95-22.97L20.95-22.97Q20.95-23.96 21.34-25.24 21.73-26.51 22.45-28.28L22.45-28.28Q23.18-30.25 23.55-31.39 23.91-32.54 23.91-33.47L23.91-33.47Q23.91-34.46 23.31-34.96 22.71-35.45 21.16-35.45L21.16-35.45Q18.04-35.45 15.44-33.68 12.84-31.91 11.31-29.39 9.77-26.87 9.77-24.74L9.77-24.74Q9.77-23.18 10.71-21.93 11.64-20.69 13.07-19.78 14.5-18.87 16.94-17.57L16.94-17.57Q20.01-15.91 21.86-14.66 23.7-13.41 25.03-11.44 26.35-9.46 26.35-6.71L26.35-6.71Q26.35-3.27 24.3-0.73 22.25 1.82 18.95 3.17 15.65 4.52 12.11 4.52L12.11 4.52ZM26.56 14.55Q25.94 14.55 25.24 14.09 24.53 13.62 24.48 13.25L24.48 13.25Q26.77 6.6 27.83 2.83 28.9-0.94 29.6-5.17 30.3-9.41 31.45-18.19L31.45-18.19Q31.55-18.92 31.73-19.15 31.91-19.39 32.69-19.39L32.69-19.39Q34.2-19.39 34.98-18.58 35.76-17.78 35.76-16.63L35.76-16.63Q35.76-15.39 35.03-11.75L35.03-11.75Q36.7-14.29 38.85-15.98 41.01-17.67 43.51-17.67L43.51-17.67Q46.05-17.67 47.72-15.93 49.38-14.19 49.38-11.44L49.38-11.44Q49.38-8.68 47.74-5.59 46.1-2.49 43.19-0.42 40.28 1.66 36.75 1.66L36.75 1.66Q35.14 1.66 34.12 1.25 33.11 0.83 33.11 0.31L33.11 0.31Q33.11-0.21 34.36-0.21L34.36-0.21Q37.48-0.26 39.97-1.9 42.47-3.53 43.87-5.98 45.27-8.42 45.27-10.81L45.27-10.81Q45.27-12.47 44.55-13.57 43.82-14.66 42.36-14.66L42.36-14.66Q40.75-14.66 39.04-13.33 37.32-12.01 35.97-10.14 34.62-8.26 33.89-6.65L33.89-6.65Q33.01-3.59 31.6 2.18L31.6 2.18Q30.1 8.58 29.03 11.57 27.96 14.55 26.56 14.55L26.56 14.55ZM61.23-21.88Q60.14-21.88 59.38-22.4 58.63-22.92 58.63-23.91L58.63-23.91Q58.63-25.11 59.96-26.02 61.28-26.92 62.79-26.92L62.79-26.92Q65.02-26.92 65.02-25L65.02-25Q65.02-23.91 63.83-22.9 62.63-21.88 61.23-21.88L61.23-21.88ZM55.1 1.56Q52.91 1.56 51.72 0.26 50.52-1.04 50.52-3.07L50.52-3.07Q50.52-5.15 51.69-8.71 52.86-12.27 54.65-14.97 56.45-17.67 58.27-17.67L58.27-17.67Q58.94-17.67 59.38-17.28 59.83-16.89 59.83-16.17L59.83-16.17Q59.83-15.7 59.41-14.89 59-14.09 58.06-12.58L58.06-12.58Q56.4-9.82 55.43-7.72 54.47-5.61 54.47-3.74L54.47-3.74Q54.47-2.13 55.04-1.56 55.62-0.99 56.81-0.99L56.81-0.99Q60.92-0.99 64.97-8.94L64.97-8.94 65.75-8.11Q63.93-3.53 61.13-0.99 58.32 1.56 55.1 1.56L55.1 1.56ZM81.14 1.04Q79.16 1.04 78.07 0.05 76.98-0.94 76.98-2.55L76.98-2.55Q76.98-3.22 77.21-4.11 77.45-4.99 77.71-5.87L77.71-5.87Q78.43-8.26 78.43-9.41L78.43-9.41Q78.43-10.45 77.92-10.94 77.4-11.44 76.62-11.44L76.62-11.44Q73.86-11.44 71.05-7.98 68.25-4.52 65.02 0.78L65.02 0.78Q62.79 0.78 61.65-0.73L61.65-0.73 62.11-2.03Q65.18-9.46 65.18-13.05L65.18-13.05Q65.6-13.51 66.38-13.9 67.16-14.29 67.88-14.29L67.88-14.29Q68.77-14.29 69.23-13.88 69.7-13.46 69.7-12.73L69.7-12.73Q69.7-11.33 68.82-8.11L68.82-8.11Q71.16-11.23 73.68-13.2 76.2-15.18 78.64-15.18L78.64-15.18Q80.72-15.18 81.87-13.75 83.01-12.32 83.01-10.34L83.01-10.34Q83.01-9.2 82.72-8.16 82.44-7.12 81.87-5.82L81.87-5.82Q80.98-3.64 80.98-2.55L80.98-2.55Q80.98-1.77 81.35-1.4 81.71-1.04 82.23-1.04L82.23-1.04Q83.94-1.04 85.95-3.4 87.95-5.77 89.56-8.99L89.56-8.99 90.44-8.26Q88.57-3.95 86.31-1.46 84.05 1.04 81.14 1.04L81.14 1.04Z"
								transform="translate(-0.21000000834465027, 37.41999816894531)"></path>
						</g>
					</g>
				</g>
			</g>
		</g>
	</g>
	<defs v-gra="od"></defs>
</svg>